<svg width="23" height="36" viewBox="0 0 23 36" fill="none" xmlns="http://www.w3.org/2000/svg">
<g clip-path="url(#clip0_2103_96)">
<path d="M11.3713 2.93302C14.5962 6.9011 16.3178 11.7944 16.2553 16.8155V18.0141L17.3193 18.6416C18.6941 19.4482 19.7194 20.6993 20.2083 22.1669C19.779 21.8605 19.3299 21.5803 18.8636 21.3278L16.0263 19.7838L15.5165 22.9001C15.4723 23.1755 15.4131 23.4485 15.3391 23.718H7.38876C7.27054 23.3655 7.17449 23.0129 7.08582 22.6463L6.443 19.8261L3.82736 21.2362C3.39038 21.473 2.96848 21.7344 2.56387 22.0188C3.06238 20.5682 4.06626 19.3242 5.40856 18.4935L6.42083 17.866V16.7521C6.43909 11.7513 8.18132 6.89523 11.3787 2.93302H11.3713ZM11.3787 0C11.2129 0.000390307 11.0528 0.0579856 10.928 0.162162L10.8615 0.218566C6.60079 4.76564 4.23488 10.6454 4.21158 16.745C2.40354 17.8643 1.06519 19.5543 0.430419 21.5197C-0.204355 23.485 -0.095189 25.6007 0.73884 27.4971C1.61744 25.6455 3.08618 24.1058 4.93568 23.0975C5.12117 23.8642 5.36819 24.6161 5.67456 25.3467C5.71342 25.4871 5.79954 25.6114 5.91969 25.7006C6.03983 25.7898 6.18735 25.8388 6.33955 25.8402H16.5952C16.8021 25.8402 17.009 25.6498 17.1124 25.3537C17.4115 24.6592 17.6199 23.9322 17.7331 23.1892C19.5861 24.1932 21.0561 25.7342 21.9299 27.5887C22.8143 25.7017 22.9512 23.5727 22.3153 21.5967C21.6794 19.6206 20.3138 17.9319 18.472 16.8437C18.545 10.7082 16.1917 4.77179 11.8812 0.218566C11.817 0.150085 11.7384 0.0952397 11.6506 0.0575871C11.5628 0.0199344 11.4676 0.000314749 11.3713 0L11.3787 0Z" fill="#4EA8DE"/>
<path d="M11.3714 16.1598C10.8038 16.1598 10.249 15.9995 9.77684 15.699C9.30466 15.3986 8.93626 14.9715 8.71808 14.4716C8.4999 13.9716 8.4417 13.4213 8.55082 12.8898C8.65994 12.3584 8.93149 11.8697 9.33125 11.4853C9.731 11.1009 10.2411 10.838 10.7972 10.7298C11.3532 10.6216 11.9304 10.6729 12.456 10.8773C12.9816 11.0816 13.432 11.4298 13.7505 11.8781C14.0689 12.3263 14.2412 12.8545 14.2456 13.396V13.396C14.2544 13.7469 14.1907 14.0961 14.0581 14.4235C13.9255 14.751 13.7265 15.0503 13.4727 15.3043C13.2188 15.5583 12.9149 15.7622 12.5785 15.9041C12.242 16.0461 11.8795 16.1234 11.5117 16.1316C11.4652 16.1387 11.4179 16.1387 11.3714 16.1316V16.1598Z" fill="#4EA8DE"/>
<path d="M15.3687 27.5958C15.1839 27.5901 14.9997 27.6198 14.8269 27.683C14.6542 27.7462 14.4965 27.8416 14.363 27.9638C14.2295 28.086 14.1229 28.2323 14.0494 28.3943C13.976 28.5563 13.9372 28.7307 13.9353 28.9072V33.067C13.9353 33.4297 14.0863 33.7776 14.3551 34.0342C14.624 34.2907 14.9886 34.4348 15.3687 34.4348C15.7489 34.4348 16.1135 34.2907 16.3823 34.0342C16.6511 33.7776 16.8022 33.4297 16.8022 33.067V28.9636C16.8081 28.7877 16.7772 28.6126 16.7115 28.4482C16.6457 28.2839 16.5463 28.1337 16.4191 28.0064C16.2918 27.879 16.1393 27.7772 15.9704 27.7067C15.8015 27.6362 15.6196 27.5985 15.4352 27.5958H15.3687Z" fill="#5E60CE"/>
<path d="M7.38877 27.5958C7.20075 27.5863 7.01266 27.613 6.83567 27.6743C6.65869 27.7356 6.49643 27.8302 6.35856 27.9526C6.22068 28.0749 6.11001 28.2225 6.03313 28.3865C5.95624 28.5505 5.91471 28.7275 5.91101 28.9072V33.067C5.91101 33.4297 6.06203 33.7777 6.33085 34.0342C6.59967 34.2907 6.96427 34.4348 7.34444 34.4348C7.72461 34.4348 8.08921 34.2907 8.35803 34.0342C8.62685 33.7777 8.77787 33.4297 8.77787 33.067V28.9636C8.78377 28.7877 8.75294 28.6126 8.68717 28.4482C8.62139 28.2839 8.52199 28.1337 8.39477 28.0064C8.26754 27.879 8.11502 27.7772 7.94611 27.7067C7.7772 27.6362 7.59527 27.5985 7.41094 27.5958H7.38877Z" fill="#5E60CE"/>
<path d="M11.2679 27.5958C11.0835 27.592 10.9002 27.623 10.7284 27.6869C10.5565 27.7507 10.3996 27.8463 10.2665 27.9681C10.1334 28.0899 10.0267 28.2355 9.95256 28.3966C9.87844 28.5577 9.83831 28.7312 9.83447 28.9072V34.6392C9.83447 35.002 9.98549 35.3499 10.2543 35.6064C10.5231 35.8629 10.8877 36.007 11.2679 36.007C11.6481 36.007 12.0127 35.8629 12.2815 35.6064C12.5503 35.3499 12.7013 35.002 12.7013 34.6392V28.9988C12.7072 28.823 12.6764 28.6478 12.6106 28.4835C12.5449 28.3191 12.4455 28.1689 12.3182 28.0416C12.191 27.9143 12.0385 27.8124 11.8696 27.7419C11.7007 27.6714 11.5187 27.6337 11.3344 27.631L11.2679 27.5958Z" fill="#5E60CE"/>
</g>
<defs>
<clipPath id="clip0_2103_96">
<rect width="22.6984" height="36" fill="white"/>
</clipPath>
</defs>
</svg>
